# xmcd CD database file
#
# Track frame offsets:
#	150
#	24639
#	45264
#	65884
#	82808
#	97993
#	120813
#	134761
#	164037
#	183953
#	206341
#	221193
#	241337
#	258467
#	293563
#	307726
#
# Disc length: 4426 seconds
#
# Revision: 0
# Processed by: cddbd v1.5.1PL0 Copyright (c) Steve Scherf et al.
# Submitted via: CDex 1.60beta1
#
DISCID=db114810
DTITLE=Jeffrey Bloom - Spirit of the Islands - Blue Dolphin Alliance
DYEAR=1900
DGENRE=New Age
TTITLE0=Honey
TTITLE1=Hawke
TTITLE2=Flicker Noise
TTITLE3=3000 BC
TTITLE4=Raven
TTITLE5=Jeffery Jones Bloom
TTITLE6=Blue Confusion
TTITLE7=Wes Van Dyk and J.J. Jammer
TTITLE8=Alien Tom vs. Liquid Space
TTITLE9=Captain Kaleidoscope
TTITLE10=Orca Tribe
TTITLE11=FireStar with Dr. Paul Spong
TTITLE12=Ma'alaya
TTITLE13=Southern REsident Orcas J,K, L Family Pod
TTITLE14=Lolita/Tokita
TTITLE15=100 Dolphins/Northern Lights
EXTD=
EXTT0=
EXTT1=
EXTT2=
EXTT3=
EXTT4=
EXTT5=
EXTT6=
EXTT7=
EXTT8=
EXTT9=
EXTT10=
EXTT11=
EXTT12=
EXTT13=
EXTT14=
EXTT15=
PLAYORDER=
